<mxfile host="www.draw.io" modified="2019-12-28T19:56:16.021Z" agent="Mozilla/5.0 (Windows NT 10.0; Win64; x64) AppleWebKit/537.36 (KHTML, like Gecko) Chrome/79.0.3945.88 Safari/537.36" etag="J0Ln0JV2enK3I25o0nCV" version="12.4.7" type="github">
  <diagram id="MKw7X9UcAvg8FJCNinnX" name="Page-1">
    <mxGraphModel dx="1024" dy="566" grid="1" gridSize="10" guides="1" tooltips="1" connect="1" arrows="1" fold="1" page="1" pageScale="1" pageWidth="827" pageHeight="1169" math="0" shadow="0">
      <root>
        <mxCell id="0"/>
        <mxCell id="1" parent="0"/>
        <mxCell id="dGhhYwrYM2k6FMBEav-u-1" value="&lt;div&gt;&lt;b&gt;#prace s diskem&lt;/b&gt;&lt;/div&gt;&lt;div&gt;&amp;nbsp;dir(); dir(&quot;C:/!UCL_WRK&quot;)&lt;/div&gt;&lt;div&gt;&amp;nbsp;dir.create(&quot;C:/!UCL_WRK/A1&quot;)&amp;nbsp; &amp;nbsp; &amp;nbsp; &amp;nbsp; &amp;nbsp; &amp;nbsp; #vytvori slozku&lt;/div&gt;&lt;div&gt;&amp;nbsp;setwd(&quot;/!UCL_WRK&quot;);&amp;nbsp; dir.create(&quot;A2&quot;)&amp;nbsp; #vytvori slozku&lt;/div&gt;&lt;div&gt;&amp;nbsp;getwd()&lt;/div&gt;&lt;div&gt;&amp;nbsp;file.create(&quot;c:/!UCL_WRK/muj_soubor.txt&quot;)&amp;nbsp; #vytvori soubor&lt;/div&gt;&lt;div&gt;&amp;nbsp;unlink(&quot;C:/!UCL_WRK/A1&quot;,recursive=TRUE)&amp;nbsp; &amp;nbsp; #smazani slozky&lt;/div&gt;&lt;div&gt;&amp;nbsp;file.remove(&quot;muj_soubor.txt&quot;)&amp;nbsp; &amp;nbsp; &amp;nbsp; &amp;nbsp; &amp;nbsp; &amp;nbsp; &amp;nbsp; #smazani souboru&lt;/div&gt;&lt;div&gt;&lt;br&gt;&lt;/div&gt;" style="rounded=0;whiteSpace=wrap;html=1;align=left;" vertex="1" parent="1">
          <mxGeometry width="350" height="130" as="geometry"/>
        </mxCell>
        <mxCell id="dGhhYwrYM2k6FMBEav-u-3" value="&lt;div&gt;&lt;div&gt;&lt;b&gt;#operatory&lt;/b&gt;&lt;/div&gt;&lt;div&gt;&amp;nbsp;1+1; 1/2; 3*2; 4-2;&amp;nbsp;&lt;/div&gt;&lt;div&gt;&amp;nbsp;2^3; sqrt(16);16^(1/2)&amp;nbsp; &amp;nbsp; # mocnneni/odmocneni:&lt;/div&gt;&lt;div&gt;&amp;nbsp;factorial(3) # Faktorial:&lt;/div&gt;&lt;div&gt;&lt;b&gt;#maticove operace&lt;/b&gt;&lt;br&gt;&lt;/div&gt;&lt;div&gt;&amp;nbsp;X&amp;lt;-matrix(1:9,3,3); Y&amp;lt;-matrix(10:18,3,3); print(X);&amp;nbsp; print(Y) # Vytvorime+zobrazime si dve matice o rozmeru 3x3:&lt;/div&gt;&lt;div&gt;&amp;nbsp;X*Y&amp;nbsp; &amp;nbsp;# pomoci operátoru * muzeme provest nasobeni elementu matic:&lt;/div&gt;&lt;div&gt;&amp;nbsp;X%*%Y #% pomocí %*% lze provést maticove nasobení&lt;/div&gt;&lt;div&gt;&lt;b&gt;#logicke operace&lt;/b&gt;&lt;br&gt;&lt;/div&gt;&lt;div&gt;&amp;nbsp;1 == 1;&amp;nbsp; 1 == 2 # Overení rovnosti: true, false&lt;/div&gt;&lt;div&gt;&amp;nbsp;1&amp;gt;4;&amp;nbsp; 4&amp;lt;5;&amp;nbsp; 7&amp;lt;=7;&amp;nbsp; 9&amp;gt;=10 # Nerovnosti&lt;/div&gt;&lt;div&gt;&amp;nbsp;TRUE &amp;amp; TRUE; FALSE &amp;amp; TRUE ## A zároven (true, false)&lt;/div&gt;&lt;div&gt;&amp;nbsp;TRUE | FALSE ;&amp;nbsp; FALSE | FALSE&amp;nbsp; # NEBO (true, false)&lt;/div&gt;&lt;div&gt;&amp;nbsp;!TRUE ; !FALSE ## Negace&lt;/div&gt;&lt;/div&gt;&lt;div&gt;&lt;br&gt;&lt;/div&gt;" style="rounded=0;whiteSpace=wrap;html=1;align=left;" vertex="1" parent="1">
          <mxGeometry y="140" width="400" height="220" as="geometry"/>
        </mxCell>
        <mxCell id="dGhhYwrYM2k6FMBEav-u-4" value="&lt;div&gt;&lt;b&gt;#funkce nad objekty (dynamicky typovany jazyk, mozno menit typy)&lt;/b&gt;&lt;/div&gt;&lt;div&gt;&amp;nbsp;class(TRUE)&amp;nbsp; #vraci typ, napr pro logical&amp;nbsp;&lt;/div&gt;&lt;div&gt;&amp;nbsp;typeof() #jakeho nizkourovnoveho typu je objekt&lt;/div&gt;&lt;div&gt;&amp;nbsp;summary()&amp;nbsp; &amp;nbsp; #statisticke shrnuti objektu&lt;/div&gt;&lt;div&gt;&amp;nbsp;attributes() #jake ma atributy objekt&lt;/div&gt;&lt;div&gt;&amp;nbsp;length()&lt;/div&gt;&lt;div&gt;&amp;nbsp;str() # struktura objektu&lt;/div&gt;&lt;div&gt;&amp;nbsp;is.na(); is.nan&amp;nbsp; #chybejici hodnota?, nan=non a number 0/0&lt;/div&gt;&lt;div&gt;&amp;nbsp;is.atomic() #vraci true, pokud je objekt atomicky&lt;/div&gt;&lt;div&gt;&amp;nbsp;is.numeric(x)&lt;/div&gt;" style="rounded=0;whiteSpace=wrap;html=1;align=left;" vertex="1" parent="1">
          <mxGeometry y="370" width="400" height="150" as="geometry"/>
        </mxCell>
        <mxCell id="dGhhYwrYM2k6FMBEav-u-5" value="&lt;div&gt;&lt;b&gt;#prevod typu #double-precision floating-point format&quot;, kazde cislo zabira 8bitu, presnost 17 mist, takze 1e-17 je 0&lt;/b&gt;&lt;/div&gt;&lt;div&gt;&amp;nbsp;x&amp;lt;-&quot;1&quot; ;&amp;nbsp; x+1 ;&amp;nbsp; class(x) ;&amp;nbsp; &amp;nbsp; &amp;nbsp; &amp;nbsp;#string,&lt;/div&gt;&lt;div&gt;&amp;nbsp;x&amp;lt;-as.numeric(x);&amp;nbsp; class(x);&amp;nbsp; x+1 #numeric&lt;/div&gt;&lt;div&gt;&amp;nbsp;x&amp;lt;-numeric()&amp;nbsp; #tvorba promenne numeric bez hodnot,&amp;nbsp;&lt;/div&gt;&lt;div&gt;&amp;nbsp;x&amp;lt;-1;&amp;nbsp; is.integer(x);&amp;nbsp; class(x)&amp;nbsp; #false, je totiz numeric&lt;/div&gt;&lt;div&gt;&amp;nbsp;x&amp;lt;-as.integer(x) ;&amp;nbsp; class(x) ;&amp;nbsp; is.integer(x) #ted je integer&lt;/div&gt;&lt;div&gt;&amp;nbsp;x&amp;lt;-1+1i;&amp;nbsp; class(x) #complex;&amp;nbsp;&lt;/div&gt;&lt;div&gt;&amp;nbsp;y&amp;lt;-1; class(y); y&amp;lt;-as.complex(y);&amp;nbsp; class(y)&amp;nbsp; #y taky complex&lt;/div&gt;&lt;div&gt;&amp;nbsp;z&amp;lt;-complex(real=1,imaginary=2);&amp;nbsp; class(z);&amp;nbsp; print(z)&amp;nbsp; #complex 1+2i&lt;/div&gt;&lt;div&gt;&amp;nbsp;&lt;/div&gt;&lt;div&gt;&amp;nbsp;x&amp;lt;-&quot;Ahoj svete&quot;;&amp;nbsp; class(x) ; print(x)&amp;nbsp; #character&lt;/div&gt;&lt;div&gt;&amp;nbsp;z&amp;lt;-character(length = 1); print(z) ; class(z) #je to character&lt;/div&gt;&lt;div&gt;&amp;nbsp;x &amp;lt;- 1; class(x)&amp;nbsp; #najednou je to numeric&lt;/div&gt;&lt;div&gt;&amp;nbsp;x&amp;lt;-as.character(x); is.character(x);&amp;nbsp; print(x) #a uz je to character&lt;/div&gt;&lt;div&gt;&amp;nbsp;&lt;/div&gt;&lt;div&gt;&amp;nbsp;x&amp;lt;-TRUE;&amp;nbsp; class(x);&amp;nbsp; y&amp;lt;-FALSE ;&amp;nbsp; class(y) ; z&amp;lt;-TRUE;&amp;nbsp; class(z) #vsechno logicke promenne&lt;/div&gt;&lt;div&gt;&amp;nbsp;x*x ; y*y ; x*y #true je 1, false=0, true * true = 1 , false krat false je 0, true * false = 0&lt;/div&gt;&lt;div&gt;&amp;nbsp;is.logical(x);&amp;nbsp; is.logical(z*y);&amp;nbsp; class(z+y) #soucet uz je int &amp;gt;1&lt;/div&gt;" style="rounded=0;whiteSpace=wrap;html=1;align=left;" vertex="1" parent="1">
          <mxGeometry x="410" width="500" height="290" as="geometry"/>
        </mxCell>
        <mxCell id="dGhhYwrYM2k6FMBEav-u-6" value="&lt;div&gt;&lt;b&gt;#vektory - atomicky vektor=posloupnost hodnot homogenni, stejne objekty&lt;/b&gt;&lt;/div&gt;&lt;div&gt;&amp;nbsp;x&amp;lt;-c(1,2,3);&amp;nbsp; class(x) ;x&amp;lt;-as.character(x) ; class(x) ; y&amp;lt;-character(length=5) ; print(y)&lt;/div&gt;&lt;div&gt;&amp;nbsp;&lt;b&gt;#&lt;/b&gt;&lt;span&gt;&lt;b&gt;matematicke operace s numerickymi vektory&lt;/b&gt;&lt;/span&gt;&lt;/div&gt;&lt;div&gt;&lt;b&gt;&amp;nbsp;&lt;/b&gt;x&amp;lt;-c(1,2,3) ; y&amp;lt;-2&amp;nbsp; ; z&amp;lt;-x ;&amp;nbsp; x*y ;&amp;nbsp; x+1 #kazde cislo vynasobi 2, nebo pricte 1&lt;/div&gt;&lt;div&gt;&amp;nbsp;x*z #1,2,3 * 1,2,3 = 1,4,9&amp;nbsp;&lt;/div&gt;&lt;div&gt;&amp;nbsp;x*c(0,1) # 1,2,3 * 1,2 - chyba ze delsi neni nasobek kratsiho, warning&lt;/div&gt;&lt;div&gt;&amp;nbsp;&lt;span&gt;&lt;b&gt;#pristup k urcitym prvkum vektoru&lt;/b&gt;&lt;/span&gt;&lt;/div&gt;&lt;div&gt;&lt;b&gt;&amp;nbsp;&lt;/b&gt;x&amp;lt;-c(1,2,3,4,5,6,7) ; x[2] ;&amp;nbsp; x[3:4] ;&amp;nbsp; x[7:4] ;&amp;nbsp; length(x)&lt;/div&gt;&lt;div&gt;&amp;nbsp;x&amp;lt;-c(1,2,3,4,5) ; x[c(TRUE,FALSE,TRUE,FALSE,TRUE)]&amp;nbsp; #vyber na zaklade true/false 1,3,5&amp;nbsp;&lt;/div&gt;&lt;div&gt;&amp;nbsp;x&amp;lt;-c(1,2,3,4,5,6,7,8,9,10) ; x[x&amp;gt;=5] # # je-li x vetsi, nebo rovno 5: 5,6,7,8,...&lt;/div&gt;&lt;div&gt;&amp;nbsp;x[x%%2==0]&amp;nbsp; # vyber sudych hodnot pomocí modula po deleni:&amp;nbsp;&lt;/div&gt;&lt;div&gt;&amp;nbsp;&lt;/div&gt;" style="rounded=0;whiteSpace=wrap;html=1;align=left;" vertex="1" parent="1">
          <mxGeometry x="410" y="380" width="500" height="170" as="geometry"/>
        </mxCell>
        <mxCell id="dGhhYwrYM2k6FMBEav-u-8" value="&lt;div&gt;&lt;b&gt;#sekvence&amp;nbsp;&lt;/b&gt;&lt;/div&gt;&lt;div&gt;&amp;nbsp;2:5 ;&amp;nbsp; 3:-3&lt;/div&gt;&lt;div&gt;&amp;nbsp;seq(from=1,to=10, by = 1)&lt;/div&gt;&lt;div&gt;&amp;nbsp;seq(from=1,to=10, length.out = 5)&lt;/div&gt;&lt;div&gt;&amp;nbsp;x&amp;lt;-rep()&amp;nbsp; #Funkce rep() vytvárí vektory prostrednictvím replikace zadaných hodnot.&lt;/div&gt;&lt;div&gt;&lt;br&gt;&lt;/div&gt;" style="rounded=0;whiteSpace=wrap;html=1;align=left;" vertex="1" parent="1">
          <mxGeometry x="10" y="540" width="250" height="100" as="geometry"/>
        </mxCell>
        <mxCell id="dGhhYwrYM2k6FMBEav-u-11" value="&lt;div&gt;&lt;b&gt;#matice&amp;nbsp;&lt;/b&gt;&lt;/div&gt;&lt;div&gt;&amp;nbsp;X&amp;lt;-matrix(data=c(1:9),nrow=3,ncol=3) ; X ;is.matrix(X) #vznkne matice&amp;nbsp;&lt;/div&gt;&lt;div&gt;&amp;nbsp;X[1,1] ; X[1:2,1:2] ; X[,2] #vypise hodnotu a1, vypise a1 az b2 (3. radek a sloupec zmizi)&lt;/div&gt;&lt;div&gt;&amp;nbsp;dim(X) ;&amp;nbsp; ncol(X) ;&amp;nbsp; nrow(X) #ma 3x3 dimenze, 3sloupce a 3 radky&lt;/div&gt;&lt;div&gt;&lt;b&gt;&amp;nbsp;#tvorba matice z vektoru&lt;/b&gt;&lt;br&gt;&lt;/div&gt;&lt;div&gt;&amp;nbsp;x&amp;lt;-c(1:5) ; y&amp;lt;-c(10:6)&amp;nbsp; #1..5 a 10..6&lt;/div&gt;&lt;div&gt;&amp;nbsp;cbind(x,y) #2 sloupce v prvnim hodnoty x, v druhem hodnoty y&lt;/div&gt;&lt;div&gt;&amp;nbsp;rbind(x,y) #2 radky, v prvnim hodnoty x, v druhem y&lt;/div&gt;&lt;div&gt;&amp;nbsp;cbind(1:5,1:3) #kdyz spojuji jinak dlouhe vektory, bude hybející hodnota doplnena replikací hodnot kratsího vektoru&lt;/div&gt;&lt;div&gt;&lt;span&gt;&amp;nbsp;X&amp;lt;-matrix(c(1:9),3); X #prvni param je nrow, rekne kolik ma byt radek pro hodnoty 1:9&lt;/span&gt;&lt;br&gt;&lt;/div&gt;&lt;div&gt;&amp;nbsp;colnames(X) ;&amp;nbsp; colnames(X)&amp;lt;-c(&quot;sloupec 1&quot;, &quot;sloupec 2&quot;, &quot;sloupec 3&quot;); rownames(X)&amp;lt;-c(&quot;A&quot;,&quot;B&quot;,&quot;C&quot;) ;&amp;nbsp; X #pojmenovani radku a sloupcu&lt;/div&gt;&lt;div&gt;&lt;br&gt;&lt;/div&gt;" style="rounded=0;whiteSpace=wrap;html=1;align=left;" vertex="1" parent="1">
          <mxGeometry x="410" y="560" width="740" height="170" as="geometry"/>
        </mxCell>
        <mxCell id="dGhhYwrYM2k6FMBEav-u-12" value="&lt;div&gt;&lt;b&gt;#dataframe&lt;/b&gt;&lt;/div&gt;&lt;div&gt;&amp;nbsp;my_data&amp;lt;-data.frame(Var1=c(&quot;A&quot;,&quot;B&quot;,&quot;C&quot;,&quot;D&quot;,&quot;E&quot;), Var2=c(1:5)) ;&amp;nbsp; my_data #2 sloupce, var1, var2, ve var1:a..e, var2:1:5&lt;/div&gt;&lt;div&gt;&amp;nbsp;class(my_data) ;&amp;nbsp; class(my_data$Var1);&amp;nbsp; class(my_data$Var2);&amp;nbsp; print(my_data$Var2) #data.frame, factor (a,b,c..), integer, 1 2 3 4 5&lt;/div&gt;&lt;div&gt;&amp;nbsp;my_data$Var3&amp;lt;-c(10,5,8,2,1) ;&amp;nbsp; print(my_data) #prepsani dat jinymi hodnotami&lt;/div&gt;&lt;div&gt;&amp;nbsp;nove_pozorovani&amp;lt;-data.frame(Var1=&quot;F&quot;,Var2=6,Var3=8)&amp;nbsp; ; rbind(my_data,nove_pozorovani) #vytvoreni nove radky a pridani do&amp;nbsp;&lt;/div&gt;&lt;div&gt;&amp;nbsp;summary(my_data) #detaily o objektu&lt;/div&gt;&lt;div&gt;&lt;div&gt;&lt;b&gt;#list&lt;/b&gt;&lt;/div&gt;&lt;div&gt;&amp;nbsp;my_list&amp;lt;-list(Subjekt=c(1,2,3), Matice_subjektu=matrix(1:6,2), logicky_vektor=c(TRUE,FALSE));&amp;nbsp; my_list #tvorba listu&lt;/div&gt;&lt;div&gt;&amp;nbsp;class(my_list[[1]]) #pristup primo k hodnote&lt;/div&gt;&lt;div&gt;&amp;nbsp;class(my_list[1])&amp;nbsp; #pristup k listu ($Subjekt)&lt;/div&gt;&lt;div&gt;&amp;nbsp;my_list$Subjekt&amp;nbsp; &amp;nbsp; #pristup k $Subjekt&lt;/div&gt;&lt;div&gt;&amp;nbsp;my_list$Matice_subjektu[1:2,1:2]&amp;nbsp; #pristup primo k hodnotam v matici subjektu&lt;/div&gt;&lt;/div&gt;&lt;div&gt;&lt;br&gt;&lt;/div&gt;" style="rounded=0;whiteSpace=wrap;html=1;align=left;" vertex="1" parent="1">
          <mxGeometry x="410" y="730" width="710" height="180" as="geometry"/>
        </mxCell>
        <mxCell id="dGhhYwrYM2k6FMBEav-u-13" value="&lt;div&gt;&lt;b&gt;#faktor - nominalni kategorialni promenne&lt;/b&gt;&lt;/div&gt;&lt;div&gt;&amp;nbsp;x=factor(x=c(2,3,1,2,1,1,1,3),labels=c(&quot;Jedna&quot;,&quot;Dva&quot;,&quot;Tri&quot;)) ;&amp;nbsp; print(x)&amp;nbsp; #automaticke napojeni od nejnizsich po nejvyssi&lt;/div&gt;&lt;div&gt;&amp;nbsp;x=factor(x=c(2,3,1,2,1,1,1,3),labels=c(&quot;Jedna&quot;,&quot;Dva&quot;,&quot;Tri&quot;), ordered=TRUE);&amp;nbsp; print(x) #ordinalni faktor, ukaze Jedna&amp;lt;Dva&amp;lt;Tri&lt;/div&gt;&lt;div&gt;&amp;nbsp;#nactena data jdou nastavit jako factor pomoci as.factor()&lt;/div&gt;" style="rounded=0;whiteSpace=wrap;html=1;align=left;" vertex="1" parent="1">
          <mxGeometry x="410" y="300" width="670" height="70" as="geometry"/>
        </mxCell>
      </root>
    </mxGraphModel>
  </diagram>
</mxfile>
